<?xml version="1.0" standalone="no"?><!-- Generator: Gravit.io --><svg xmlns="http://www.w3.org/2000/svg" xmlns:xlink="http://www.w3.org/1999/xlink" style="isolation:isolate" viewBox="0 0 107 75" width="107" height="75"><defs><clipPath id="_clipPath_iyZWQgCEOMkBUN2G1D2lFPvd4jZPA84t"><rect width="107" height="75"/></clipPath></defs><g clip-path="url(#_clipPath_iyZWQgCEOMkBUN2G1D2lFPvd4jZPA84t)"><path d=" M 8.389 26 L 19.389 26 L 19.389 36 L 8.389 36 L 8.389 26 Z " fill="rgb(255,255,255)"/><path d=" M 21.389 26 L 32.389 26 L 32.389 36 L 21.389 36 L 21.389 26 Z " fill="rgb(255,255,255)"/><path d=" M 34.389 26 L 45.389 26 L 45.389 36 L 34.389 36 L 34.389 26 Z " fill="rgb(255,255,255)"/><path d=" M 47.389 26 L 58.389 26 L 58.389 36 L 47.389 36 L 47.389 26 Z " fill="rgb(255,255,255)"/><path d=" M 60.389 26 L 71.389 26 L 71.389 36 L 60.389 36 L 60.389 26 Z " fill="rgb(255,255,255)"/><path d=" M 21.389 14 L 32.389 14 L 32.389 24 L 21.389 24 L 21.389 14 Z " fill="rgb(255,255,255)"/><path d=" M 34.389 14 L 45.389 14 L 45.389 24 L 34.389 24 L 34.389 14 Z " fill="rgb(255,255,255)"/><path d=" M 47.389 14 L 58.389 14 L 58.389 24 L 47.389 24 L 47.389 14 Z " fill="rgb(255,255,255)"/><path d=" M 47.389 2 L 58.389 2 L 58.389 12 L 47.389 12 L 47.389 2 Z " fill="rgb(255,255,255)"/><path d=" M 91.289 28 C 91.089 23.7 88.889 20.1 84.789 16.9 L 83.289 15.9 L 82.289 17.4 C 80.289 20.4 79.489 24.4 79.789 28 C 79.989 30.2 80.789 32.7 82.289 34.5 C 81.189 35.4 77.589 37.1 72.789 37 L 1.289 37 C -0.011 44.6 2.189 73.2 35.289 73.2 C 59.889 73.2 80.089 62.2 89.289 39 C 92.289 39 100.389 39.5 104.289 32 C 104.389 31.9 105.289 30 105.289 30 L 103.789 29 C 101.589 27.5 95.589 26.9 91.289 28 Z " fill="rgb(9,156,236)"/><path d=" M 28.089 59.8 C 19.889 62.6 11.189 63 9.289 63 C 15.389 68.1 26.289 77.7 44.289 72.2 C 40.989 71.3 33.289 68.3 28.089 59.8 Z " fill="rgb(255,255,255)"/><path d=" M 27.189 58 C 23.289 60.2 18.689 61.5 13.889 61.5 C 11.489 61.5 9.089 61.2 6.789 60.6 C 8.189 63 8.189 63 8.189 63 C 9.989 63.4 11.889 63.5 13.789 63.5 C 18.989 63.5 23.889 62.1 28.089 59.7 C 27.789 59.2 27.489 58.6 27.189 58 Z " fill="rgb(6,109,165)"/><path d=" M 31.289 53.2 C 31.289 51.268 32.857 49.7 34.789 49.7 C 36.72 49.7 38.289 51.268 38.289 53.2 C 38.289 55.132 36.72 56.7 34.789 56.7 C 32.857 56.7 31.289 55.132 31.289 53.2 Z " fill="rgb(255,255,255)"/><g opacity="0.6"><path d=" M 36.789 53.1 C 36.689 53.2 36.489 53.2 36.289 53.2 C 35.689 53.2 35.289 52.7 35.289 52.2 C 35.289 51.9 35.489 51.6 35.689 51.4 C 35.389 51.3 35.089 51.2 34.789 51.2 C 33.689 51.2 32.789 52.1 32.789 53.2 C 32.789 54.3 33.689 55.2 34.789 55.2 C 35.889 55.2 36.789 54.3 36.789 53.2 C 36.789 53.2 36.789 53.1 36.789 53.1 Z " fill="rgb(16,30,38)"/></g><g opacity="0.1"><path d=" M 103.889 28.9 C 101.689 27.4 95.489 26.7 91.389 27.9 L 90.489 29.2 C 77.089 56.9 60.289 68.7 37.389 69.2 C 12.389 69.1 6.089 55.9 4.389 38 L 0.389 38 C -0.111 45.6 1.789 73.3 35.189 73.3 C 59.789 73.3 79.989 62.3 89.389 39.1 C 92.489 39.2 100.989 39.2 104.689 31.5 L 105.489 29.9 L 103.889 28.9 Z " fill="rgb(16,30,38)"/></g><path d=" M 104.389 28.1 L 106.589 29.6 L 106.189 30.4 C 106.089 30.6 106.089 30.6 105.989 30.7 C 105.889 30.9 105.789 31.2 105.689 31.4 C 105.389 32 105.289 32.3 105.189 32.5 C 103.489 35.8 100.889 37.9 97.689 39.1 C 95.289 40 93.089 40.2 89.989 40.1 C 80.789 62.4 61.089 74.3 35.289 74.3 C 20.189 74.3 10.089 68.5 4.489 58.5 C 2.389 54.6 1.089 50.3 0.389 46 C -0.111 42.5 -0.111 39.2 0.289 36.8 L 0.389 36 L 1.189 36 L 72.689 36 C 75.889 36.1 78.889 35.2 80.689 34.2 C 79.589 32.5 78.889 30.3 78.589 28 C 78.289 24 79.189 19.9 81.289 16.8 L 82.889 14.5 L 85.389 16 C 89.389 19.1 91.589 22.6 92.189 26.7 C 96.489 25.9 101.989 26.5 104.389 28.1 Z  M 103.289 29.8 C 101.189 28.4 95.489 27.9 91.589 28.9 L 90.389 29.2 L 90.289 28 C 90.089 24.1 88.089 20.7 84.189 17.7 L 83.589 17.3 L 83.189 18 C 81.389 20.7 80.589 24.4 80.889 27.9 C 81.089 30.2 81.889 32.4 83.189 33.9 L 83.889 34.7 L 83.089 35.3 C 81.089 36.8 77.189 38.1 72.989 38 L 2.189 38 C 1.989 40.1 1.989 42.8 2.389 45.7 C 2.989 49.8 4.289 53.9 6.289 57.5 C 11.489 66.8 20.889 72.3 35.289 72.3 C 60.489 72.3 79.589 60.6 88.389 38.7 L 88.689 38.1 L 89.389 38.1 C 89.689 38.1 89.889 38.1 89.889 38.1 C 92.889 38.2 94.889 38 96.989 37.2 C 99.789 36.2 101.889 34.4 103.389 31.6 C 103.489 31.4 103.489 31.4 103.589 31.3 C 103.689 31.1 103.789 30.9 103.889 30.7 C 103.889 30.6 103.989 30.5 103.989 30.5 L 103.289 29.8 Z " fill="rgb(6,109,165)"/><path d=" M 8.389 26 L 8.389 36 L 19.389 36 L 19.389 26 L 8.389 26 Z  M 6.389 24 L 21.389 24 L 21.389 38 L 6.389 38 L 6.389 24 Z " fill="rgb(6,109,165)"/><rect x="10.389" y="28" width="1" height="6" transform="matrix(1,0,0,1,0,0)" fill="rgb(6,109,165)"/><rect x="13.389" y="28" width="1" height="6" transform="matrix(1,0,0,1,0,0)" fill="rgb(6,109,165)"/><rect x="16.389" y="28" width="1" height="6" transform="matrix(1,0,0,1,0,0)" fill="rgb(6,109,165)"/><path d=" M 21.389 26 L 21.389 36 L 32.389 36 L 32.389 26 L 21.389 26 Z  M 19.389 24 L 34.389 24 L 34.389 38 L 19.389 38 L 19.389 24 Z " fill="rgb(6,109,165)"/><rect x="23.389" y="28" width="1" height="6" transform="matrix(1,0,0,1,0,0)" fill="rgb(6,109,165)"/><rect x="26.389" y="28" width="1" height="6" transform="matrix(1,0,0,1,0,0)" fill="rgb(6,109,165)"/><rect x="29.389" y="28" width="1" height="6" transform="matrix(1,0,0,1,0,0)" fill="rgb(6,109,165)"/><path d=" M 34.389 26 L 34.389 36 L 45.389 36 L 45.389 26 L 34.389 26 Z  M 32.389 24 L 47.389 24 L 47.389 38 L 32.389 38 L 32.389 24 Z " fill="rgb(6,109,165)"/><rect x="36.389" y="28" width="1" height="6" transform="matrix(1,0,0,1,0,0)" fill="rgb(6,109,165)"/><rect x="39.389" y="28" width="1" height="6" transform="matrix(1,0,0,1,0,0)" fill="rgb(6,109,165)"/><rect x="42.389" y="28" width="1" height="6" transform="matrix(1,0,0,1,0,0)" fill="rgb(6,109,165)"/><path d=" M 47.389 26 L 47.389 36 L 58.389 36 L 58.389 26 L 47.389 26 Z  M 45.389 24 L 60.389 24 L 60.389 38 L 45.389 38 L 45.389 24 Z " fill="rgb(6,109,165)"/><rect x="49.389" y="28" width="1" height="6" transform="matrix(1,0,0,1,0,0)" fill="rgb(6,109,165)"/><rect x="52.389" y="28" width="1" height="6" transform="matrix(1,0,0,1,0,0)" fill="rgb(6,109,165)"/><rect x="55.389" y="28" width="1" height="6" transform="matrix(1,0,0,1,0,0)" fill="rgb(6,109,165)"/><path d=" M 60.389 26 L 60.389 36 L 71.389 36 L 71.389 26 L 60.389 26 Z  M 58.389 24 L 73.389 24 L 73.389 38 L 58.389 38 L 58.389 24 Z " fill="rgb(6,109,165)"/><rect x="62.389" y="28" width="1" height="6" transform="matrix(1,0,0,1,0,0)" fill="rgb(6,109,165)"/><rect x="65.389" y="28" width="1" height="6" transform="matrix(1,0,0,1,0,0)" fill="rgb(6,109,165)"/><rect x="68.389" y="28" width="1" height="6" transform="matrix(1,0,0,1,0,0)" fill="rgb(6,109,165)"/><path d=" M 21.389 14 L 21.389 24 L 32.389 24 L 32.389 14 L 21.389 14 Z  M 19.389 12 L 34.389 12 L 34.389 26 L 19.389 26 L 19.389 12 Z " fill="rgb(6,109,165)"/><rect x="26.389" y="16" width="1" height="6" transform="matrix(1,0,0,1,0,0)" fill="rgb(6,109,165)"/><rect x="29.389" y="16" width="1" height="6" transform="matrix(1,0,0,1,0,0)" fill="rgb(6,109,165)"/><path d=" M 34.389 14 L 34.389 24 L 45.389 24 L 45.389 14 L 34.389 14 Z  M 32.389 12 L 47.389 12 L 47.389 26 L 32.389 26 L 32.389 12 Z " fill="rgb(6,109,165)"/><rect x="36.389" y="16" width="1" height="6" transform="matrix(1,0,0,1,0,0)" fill="rgb(6,109,165)"/><rect x="39.389" y="16" width="1" height="6" transform="matrix(1,0,0,1,0,0)" fill="rgb(6,109,165)"/><rect x="42.389" y="16" width="1" height="6" transform="matrix(1,0,0,1,0,0)" fill="rgb(6,109,165)"/><path d=" M 47.389 14 L 47.389 24 L 58.389 24 L 58.389 14 L 47.389 14 Z  M 45.389 12 L 60.389 12 L 60.389 26 L 45.389 26 L 45.389 12 Z " fill="rgb(6,109,165)"/><rect x="49.389" y="16" width="1" height="6" transform="matrix(1,0,0,1,0,0)" fill="rgb(6,109,165)"/><rect x="52.389" y="16" width="1" height="6" transform="matrix(1,0,0,1,0,0)" fill="rgb(6,109,165)"/><rect x="55.389" y="16" width="1" height="6" transform="matrix(1,0,0,1,0,0)" fill="rgb(6,109,165)"/><path d=" M 47.389 2 L 47.389 12 L 58.389 12 L 58.389 2 L 47.389 2 Z  M 45.389 0 L 60.389 0 L 60.389 14 L 45.389 14 L 45.389 0 Z " fill="rgb(6,109,165)"/><rect x="52.389" y="4" width="1" height="6" transform="matrix(1,0,0,1,0,0)" fill="rgb(6,109,165)"/><rect x="49.389" y="4" width="1" height="6" transform="matrix(1,0,0,1,0,0)" fill="rgb(6,109,165)"/><rect x="55.389" y="4" width="1" height="6" transform="matrix(1,0,0,1,0,0)" fill="rgb(6,109,165)"/><rect x="23.389" y="16" width="1" height="6" transform="matrix(1,0,0,1,0,0)" fill="rgb(6,109,165)"/></g></svg>