<svg id="Layer_1" data-name="Layer 1" xmlns="http://www.w3.org/2000/svg" viewBox="0 0 461.44 298.59"><defs><style>.cls-1{fill:#0096e6;}.cls-2{fill:#d0e8f9;}.cls-3{fill:#fff;}</style></defs><title>icon-docker</title><path id="outline" class="cls-1" d="M242.13,168.48h47.15v48.19h23.84a103.38,103.38,0,0,0,32.76-5.49A83.91,83.91,0,0,0,361.8,204c-6.66-8.69-10.05-19.66-11.05-30.48-1.36-14.71,1.61-33.85,11.56-45.37l5-5.73,5.9,4.75c14.87,11.95,27.37,28.64,29.58,47.66,17.9-5.27,38.92-4,54.7,5.09l6.48,3.73-3.41,6.65c-13.35,26-41.25,34.11-68.52,32.69C351.17,324.65,262.31,372.78,154.56,372.78c-55.67,0-106.74-20.81-135.82-70.2l-0.48-.81L14,293.15C4.2,271.42.93,247.6,3.14,223.8l0.66-7.13H44.12V168.48H91.27V121.34h94.29V74.19h56.57v94.29Z" transform="translate(-2.48 -74.19)"/><g id="Containers"><path class="cls-2" d="M86.21,179.74h3.23V213.8H86.21V179.74Zm-6.19,0h3.35V213.8H80V179.74Zm-6.19,0h3.35V213.8H73.83V179.74Zm-6.19,0H71V213.8H67.64V179.74Zm-6.19,0H64.8V213.8H61.45V179.74Zm-6.06,0h3.22V213.8H55.38V179.74ZM52,176.34H92.84V217.2H52V176.34Z" transform="translate(-2.48 -74.19)"/><path class="cls-2" d="M133.35,132.6h3.23v34.05h-3.23V132.6Zm-6.19,0h3.35v34.05h-3.35V132.6Zm-6.19,0h3.35v34.05H121V132.6Zm-6.19,0h3.35v34.05h-3.35V132.6Zm-6.19,0h3.35v34.05h-3.35V132.6Zm-6.06,0h3.22v34.05h-3.22V132.6Zm-3.41-3.41H140v40.86H99.12V129.19Z" transform="translate(-2.48 -74.19)"/><path class="cls-2" d="M133.35,179.74h3.23V213.8h-3.23V179.74Zm-6.19,0h3.35V213.8h-3.35V179.74Zm-6.19,0h3.35V213.8H121V179.74Zm-6.19,0h3.35V213.8h-3.35V179.74Zm-6.19,0h3.35V213.8h-3.35V179.74Zm-6.06,0h3.22V213.8h-3.22V179.74Zm-3.41-3.41H140V217.2H99.12V176.34Z" transform="translate(-2.48 -74.19)"/><path class="cls-2" d="M180.5,179.74h3.23V213.8H180.5V179.74Zm-6.19,0h3.35V213.8h-3.35V179.74Zm-6.19,0h3.35V213.8h-3.35V179.74Zm-6.19,0h3.35V213.8h-3.35V179.74Zm-6.19,0h3.35V213.8h-3.35V179.74Zm-6.06,0h3.22V213.8h-3.22V179.74Zm-3.4-3.41h40.86V217.2H146.27V176.34Z" transform="translate(-2.48 -74.19)"/><path class="cls-2" d="M180.5,132.6h3.23v34.05H180.5V132.6Zm-6.19,0h3.35v34.05h-3.35V132.6Zm-6.19,0h3.35v34.05h-3.35V132.6Zm-6.19,0h3.35v34.05h-3.35V132.6Zm-6.19,0h3.35v34.05h-3.35V132.6Zm-6.06,0h3.22v34.05h-3.22V132.6Zm-3.4-3.41h40.86v40.86H146.27V129.19Z" transform="translate(-2.48 -74.19)"/><path class="cls-2" d="M227.65,179.74h3.23V213.8h-3.23V179.74Zm-6.19,0h3.35V213.8h-3.35V179.74Zm-6.19,0h3.35V213.8h-3.35V179.74Zm-6.19,0h3.35V213.8h-3.35V179.74Zm-6.19,0h3.35V213.8h-3.35V179.74Zm-6.06,0H200V213.8h-3.22V179.74Zm-3.4-3.41h40.86V217.2H193.42V176.34h0Z" transform="translate(-2.48 -74.19)"/><path class="cls-2" d="M227.65,132.6h3.23v34.05h-3.23V132.6Zm-6.19,0h3.35v34.05h-3.35V132.6Zm-6.19,0h3.35v34.05h-3.35V132.6Zm-6.19,0h3.35v34.05h-3.35V132.6Zm-6.19,0h3.35v34.05h-3.35V132.6Zm-6.06,0H200v34.05h-3.22V132.6Zm-3.4-3.41h40.86v40.86H193.42V129.19h0Z" transform="translate(-2.48 -74.19)"/><path class="cls-2" d="M227.65,85.45h3.23V119.5h-3.23V85.45Zm-6.19,0h3.35V119.5h-3.35V85.45Zm-6.19,0h3.35V119.5h-3.35V85.45Zm-6.19,0h3.35V119.5h-3.35V85.45Zm-6.19,0h3.35V119.5h-3.35V85.45Zm-6.06,0H200V119.5h-3.22V85.45Zm-3.4-3.4h40.86v40.86H193.42V82h0Z" transform="translate(-2.48 -74.19)"/><path class="cls-2" d="M274.79,179.74H278V213.8h-3.22V179.74Zm-6.19,0H272V213.8H268.6V179.74Zm-6.19,0h3.35V213.8h-3.35V179.74Zm-6.19,0h3.35V213.8h-3.35V179.74Zm-6.19,0h3.35V213.8H250V179.74Zm-6.06,0h3.23V213.8H244V179.74Zm-3.4-3.41h40.86V217.2H240.56V176.34h0Z" transform="translate(-2.48 -74.19)"/></g><path class="cls-3" d="M137.43,283.45a11.27,11.27,0,1,1-11.27,11.27,11.27,11.27,0,0,1,11.27-11.27" transform="translate(-2.48 -74.19)"/><path class="cls-1" d="M137.43,286.64a8.06,8.06,0,0,1,2.92.55,3.29,3.29,0,1,0,4.54,4.43,8.07,8.07,0,1,1-7.46-5" transform="translate(-2.48 -74.19)"/><path class="cls-2" d="M167.39,364.68c-27.92-13.25-43.24-31.26-51.76-50.92-10.37,3-22.83,4.85-37.32,5.66q-8.19.46-17.22,0.46-10.41,0-21.94-.61c25.6,25.58,57.09,45.28,115.41,45.64Q161,364.92,167.39,364.68Z" transform="translate(-2.48 -74.19)"/></svg>